<svg xmlns="http://www.w3.org/2000/svg" xmlns:xlink="http://www.w3.org/1999/xlink" aria-hidden="true" role="img" width="1.4em" height="1.4em" preserveAspectRatio="xMidYMid meet" viewBox="0 0 256 256"><path d="M184 116h-32a8 8 0 0 1 0-16h32a8 8 0 0 1 0 16zm-80-16h-8v-8a8 8 0 0 0-16 0v8h-8a8 8 0 0 0 0 16h8v8a8 8 0 0 0 16 0v-8h8a8 8 0 0 0 0-16zm114.3 123.4a33.6 33.6 0 0 1-6.3.6a36 36 0 0 1-25.4-10.5l-.5-.5l-40.6-45.2l-34.9.2l-40.7 45l-.4.5A36.4 36.4 0 0 1 44 224a31.8 31.8 0 0 1-6.2-.6a35.9 35.9 0 0 1-29.2-41.7l16.3-83.9v-.2A59.9 59.9 0 0 1 84 48l88-.3A60 60 0 0 1 231 97c.1.1.1.1.1.2l16.3 84.4h.1a36.1 36.1 0 0 1-29.2 41.8zM172 151.7a44 44 0 1 0 0-88L84 64a43.9 43.9 0 0 0-43.3 36a.9.9 0 0 1-.1.5l-16.3 84.1A20 20 0 0 0 58 202.3l43.1-47.7a8.3 8.3 0 0 1 5.9-2.6zm59.7 32.9l-8.7-45.2a60 60 0 0 1-51 28.3h-5.1l31.1 34.6a20 20 0 0 0 33.7-17.7z" fill="currentColor"></path></svg>
