  <svg
    aria-labelledby="404-svg-title"
    role="img"
    width="478"
    height="262"
    viewBox="0 0 478 262"
    xmlns="http://www.w3.org/2000/svg"
  >
    <title id="404-svg-title">Error 404</title>
    <g fill="none" fill-rule="evenodd">
      <path
        d="M296 241.412c27.583 1.286 56.126 3.405 85 6.178v4.018c-28.877-2.778-57.423-4.902-85-6.192v-4.004zm-114 0v4.004c-33.506 1.568-68.442 4.365-103.666 8.073-19.723 2.076-38.209 4.3-54.93 6.525-5.85.778-11.063 1.5-15.57 2.15a885.689 885.689 0 0 0-5.176.76c-1.447.22-2.468-.53-2.635-1.621a2 2 0 0 1 1.674-2.28 889.659 889.659 0 0 1 5.567-.82c4.521-.65 9.747-1.374 15.613-2.154a2035.73 2035.73 0 0 1 55.039-6.538c35.362-3.722 70.437-6.53 104.084-8.1zm219 8.196a2033.711 2033.711 0 0 1 54.123 6.44c5.866.781 11.092 1.506 15.613 2.156a889.651 889.651 0 0 1 5.203.764c1.456.222 2.205 1.243 2.038 2.335a2 2 0 0 1-2.28 1.674c-.65-.099-1.003-.151-1.411-.212a885.707 885.707 0 0 0-4.12-.602c-4.507-.648-9.72-1.37-15.57-2.15A2028.787 2028.787 0 0 0 401 253.63v-4.022z"
        fill="#c2c2c2"
        fill-rule="nonzero"
      />
      <path
        d="M182 230h-1c-5.523 0-10-4.479-10-10.002v-6a5.998 5.998 0 0 1 5.997-5.998h124.006a5.998 5.998 0 0 1 5.997 5.997v6c0 5.525-4.486 10.003-10 10.003h-1v19.01a9.988 9.988 0 0 1-9.992 9.99h-94.016c-5.518 0-9.992-4.472-9.992-9.99V230zm4 0v19.01a5.99 5.99 0 0 0 5.992 5.99h94.016a5.988 5.988 0 0 0 5.992-5.99V230H186zm79 7h16a2 2 0 0 1 0 4h-16a2 2 0 1 1 0-4zm0 8h16a2 2 0 0 1 0 4h-16a2 2 0 1 1 0-4zm-90-31.003v6a6.002 6.002 0 0 0 6 6.003h116c3.308 0 6-2.69 6-6.002v-6a1.998 1.998 0 0 0-1.997-1.998H176.997a1.998 1.998 0 0 0-1.997 1.997z"
        fill="#c2c2c2"
        fill-rule="nonzero"
      />
      <path
        d="M197 223a4 4 0 1 1 0-8 4 4 0 0 1 0 8zm28 0a4 4 0 1 1 0-8 4 4 0 0 1 0 8zm28 0a4 4 0 1 1 0-8 4 4 0 0 1 0 8zm28 0a4 4 0 1 1 0-8 4 4 0 0 1 0 8z"
        fill="currentColor"
      />
      <path
        d="M296 67h1c5.523 0 10 4.479 10 10.002v6A5.998 5.998 0 0 1 301.003 89H176.997A5.998 5.998 0 0 1 171 83.003v-6C171 71.477 175.486 67 181 67h1V55c0-11.046 8.954-20 20-20h17.014a8.498 8.498 0 0 1 8.493-8h22.986c4.53 0 8.233 3.547 8.492 8H276c11.046 0 20 8.954 20 20v12zm-4 0V55c0-8.837-7.163-16-16-16h-74c-8.837 0-16 7.163-16 16v12h106zm-37.028-32a4.512 4.512 0 0 0-4.48-4h-22.985a4.498 4.498 0 0 0-4.48 4h31.945zM175 77.002v6c0 1.103.895 1.998 1.997 1.998h124.006A1.998 1.998 0 0 0 303 83.003v-6A6.002 6.002 0 0 0 297 71H181c-3.308 0-6 2.69-6 6.002z"
        fill="#c2c2c2"
        fill-rule="nonzero"
      />
      <g transform="translate(227 1)">
        <rect fill="#FEE1D3" x="6" y="18" width="12" height="4" rx="2" />
        <rect fill="#FDC4A8" x="3" y="9" width="18" height="4" rx="2" />
        <rect fill="#FDC4A8" width="24" height="4" rx="2" />
      </g>
      <path
        d="M197 82a4 4 0 1 1 0-8 4 4 0 0 1 0 8zm28 0a4 4 0 1 1 0-8 4 4 0 0 1 0 8zm28 0a4 4 0 1 1 0-8 4 4 0 0 1 0 8zm28 0a4 4 0 1 1 0-8 4 4 0 0 1 0 8z"
        fill="currentColor"
      />
      <g fill="currentColor">
        <path opacity=".15" d="M179 89h8v119h-8z" />
        <path opacity=".1" d="M195 89h8v119h-8z" />
        <path
          opacity=".05"
          d="M211 89h8v119h-8zm16 0h8v119h-8zm16 0h8v119h-8zm16 0h8v119h-8z"
        />
        <path opacity=".1" d="M275 89h8v119h-8z" />
        <path opacity=".15" d="M291 89h8v119h-8z" />
      </g>
      <path
        d="M213.508 149.148h3.844v11.93h-3.844v7.547h-12.633v-7.547H187v-10.58l14.623-22.865h11.885v21.515zm10.883-.984c0-6.582 1.073-11.655 3.35-15.238 2.486-3.91 6.34-5.926 11.204-5.926 4.876 0 8.739 2.01 11.226 5.911 2.28 3.577 3.352 8.655 3.352 15.253 0 6.583-1.073 11.653-3.352 15.23-2.487 3.901-6.35 5.91-11.226 5.91-4.863 0-8.718-2.015-11.203-5.925-2.278-3.583-3.351-8.649-3.351-15.215zm62.914.984h3.843v11.93h-3.843v7.547h-12.633v-7.547h-13.875v-10.58l14.623-22.865h11.885v21.515z"
        fill="#FFF"
        fill-rule="nonzero"
      />
      <path
        d="M199.194 137H203v-1h-3.167l.64-1H206v-1h-4.888l2.154-3.367h7.242V139H206v1h4.508v12.148h3.844v5.93h-3.844v7.547h-6.633v-7.547H190V157h4v-1h-4v-1h6v-1h-6v-2.625L199.194 137zm4.681 1.32l-8.836 13.828h8.836V138.32zM227.467 151a50.424 50.424 0 0 1-.076-2.836c0-3.125.255-5.846.766-8.164H232v-1h-3.6c.188-.709.404-1.375.646-2H233v-1h-3.527c.245-.523.512-1.01.8-1.465 1.922-3.023 4.813-4.535 8.672-4.535 3.156 0 5.664 1 7.524 3H240v1h7.286c.122.17.24.344.355.523 1.922 3.016 2.882 7.563 2.882 13.641 0 .986-.025 1.931-.076 2.836h-6.946c.041-.88.061-1.826.061-2.836 0-1.625-.054-3.078-.164-4.36L238.882 151h-3.937l7.563-12.07-.047-.14c-.734-1.954-1.906-2.93-3.516-2.93-1.593 0-2.757.976-3.492 2.93-.734 1.952-1.101 5.077-1.101 9.374 0 1.014.018 1.959.054 2.836h-6.939zm.068 1h10.72l-3.036 4.836c.078.25.156.476.234.68.735 1.953 1.899 2.93 3.492 2.93 1.61 0 2.782-.977 3.516-2.93.494-1.313.821-3.152.983-5.516h6.935c-.027.34-.057.673-.092 1H245v1h5.166c-.046.34-.097.674-.152 1H244v1h5.827c-.48 2.32-1.21 4.248-2.186 5.781-1.922 3.016-4.82 4.524-8.696 4.524-3.294 0-5.883-1.102-7.765-3.305H237v-1h-6.576a11.633 11.633 0 0 1-.601-1H234v-1h-4.667c-.941-2.128-1.54-4.795-1.798-8zm56.77-6v6.148h3.843V154H281v1h7.148v3.078h-3.843V159H281v1h3.305v2H278v1h6.305v2.625h-6.633v-7.547h-13.875v-6.703l3.437-5.375h5.53l-3.928 6.148h8.836V146h6.633zm0-1h-6.633v-6.68l-4.268 6.68h-5.53l5.116-8H279v-1h-5.37l1.279-2h9.396v8H279v1h5.305v2zm0-12h-8.756l1.514-2.367h7.242V133z"
        fill="#333"
      />
      <path
        d="M428 194v-3.993a4.002 4.002 0 0 0-3.993-4.007h-66.014a3.999 3.999 0 0 0-3.993 4.007V200h8a2 2 0 1 1 0 4h-8v5h13a2 2 0 1 1 0 4h-13v8.993a4.002 4.002 0 0 0 3.993 4.007h66.014a3.999 3.999 0 0 0 3.993-4h-13a2 2 0 1 1 0-4h13v-10h-6a2 2 0 1 1 0-4h6v-6h-6a2 2 0 1 1 0-4h6zm-47 36h-23.007c-4.414 0-7.993-3.588-7.993-8.007v-31.986c0-4.422 3.576-8.007 7.993-8.007h66.014c4.414 0 7.993 3.588 7.993 8.007v31.986c0 4.422-3.576 8.007-7.993 8.007H401v25.01a5.989 5.989 0 0 1-6 5.99h-8c-3.313 0-6-2.689-6-5.99V230zm4 0v25.01a2 2 0 0 0 2 1.99h8c1.111 0 2-.888 2-1.99V230h-12zm6 24a3 3 0 1 1 0-6 3 3 0 0 1 0 6z"
        fill="#c2c2c2"
        fill-rule="nonzero"
      />
      <g transform="translate(375 192)">
        <path
          d="M4.724 6.473l2.331 1.888c.43.348.499.973.148 1.406l-.63.779a.997.997 0 0 1-1.406.147L2.836 8.805l-.64.79a.999.999 0 0 1-1.408.15.994.994 0 0 1-.146-1.41l3.143-3.88a.999.999 0 0 1 1.408-.15c.43.347.502.969.146 1.408l-.615.76zm23.44 2.332l-2.331 1.888a.996.996 0 0 1-1.406-.147l-.63-.78a.997.997 0 0 1 .148-1.405l2.331-1.888-.615-.76a.999.999 0 0 1 .146-1.409.994.994 0 0 1 1.408.15l3.143 3.881a.999.999 0 0 1-.146 1.41.994.994 0 0 1-1.408-.15l-.64-.79zM17 2v3c0 .552-.443 1-.999 1h-1.002A.997.997 0 0 1 14 5V2h-.997A.999.999 0 0 1 12 1c0-.552.438-1 1.003-1h4.994A.999.999 0 0 1 19 1c0 .552-.438 1-1.003 1H17z"
          fill="#C3B8E3"
        />
        <path
          d="M15.593 29c-14.5 0-12.5-5.596-12.5-12.5S8.69 4 15.593 4c6.904 0 12.5 5.596 12.5 12.5s2 12.5-12.5 12.5zm0-4c2.814 0 4.908-.226 6.354-.636 1.003-.284 1.525-.592 1.774-.89.407-.485.527-1.44.421-4.655a64.986 64.986 0 0 1-.049-2.319 8.5 8.5 0 1 0-17 0c0 .683-.013 1.24-.048 2.32-.106 3.215.014 4.169.42 4.655.25.297.772.605 1.775.89 1.446.409 3.54.635 6.353.635zm-.093-1.5a7 7 0 1 1 0-14 7 7 0 0 1 0 14zm0-3a4 4 0 1 0 0-8 4 4 0 0 0 0 8z"
          fill="#c7c7c7"
          fill-rule="nonzero"
        />
        <circle fill="#6B4FBB" cx="14.5" cy="15.5" r="2.5" />
      </g>
      <path
        d="M46.994 106zM44 103h-1.004A2.996 2.996 0 0 1 40 99.998v-1.996A3.005 3.005 0 0 1 42.996 95h22.008A2.996 2.996 0 0 1 68 98.002v1.996A3.005 3.005 0 0 1 65.004 103H64v2.997A3 3 0 0 1 61.006 109H46.994A2.997 2.997 0 0 1 44 105.997V103zm3 0v2.997l14.006.003c-.003 0-.005-1-.006-3H47zm18.004-3c-.006 0-.007-.666-.004-1.998L42.996 98c.006 0 .007.666.004 1.998l22.004.002zm-18.01-39zM44 64h-1.004A2.996 2.996 0 0 0 40 67.002v1.996A3.005 3.005 0 0 0 42.996 72h22.008A2.996 2.996 0 0 0 68 68.998v-1.996A3.005 3.005 0 0 0 65.004 64H64v-2.997A3 3 0 0 0 61.006 58H46.994A2.997 2.997 0 0 0 44 61.003V64zm3 0v-2.997L61.006 61c-.003 0-.005 1-.006 3H47zm18.004 3c-.006 0-.007.666-.004 1.998L42.996 69c.006 0 .007-.666.004-1.998L65.004 67z"
        fill="#c2c2c2"
        fill-rule="nonzero"
      />
      <path
        d="M51 55a1 1 0 0 1 .99-1h4.02c.546 0 .99.444.99 1a1 1 0 0 1-.99 1h-4.02a.993.993 0 0 1-.99-1zm-1-4c0-.552.453-1 .997-1h6.006c.55 0 .997.444.997 1 0 .552-.453 1-.997 1h-6.006A.996.996 0 0 1 50 51z"
        fill="#dedede"
      />
      <path
        d="M43 72h2v23h-2V72zm8 0h2v23h-2V72zm8 0h2v23h-2V72z"
        fill="#c7c7c7"
      />
      <path
        d="M47 72h2v23h-2V72zm8 0h2v23h-2V72zm8 0h2v23h-2V72z"
        fill="#dedede"
      />
      <path
        d="M83.039 123.718A15.433 15.433 0 0 1 73.5 127c-2.243 0-4.375-.476-6.3-1.334A15.464 15.464 0 0 1 55.5 131c-8.56 0-15.5-6.94-15.5-15.5 0-1.34.17-2.64.49-3.879C27.301 116.964 18 129.896 18 145c0 19.882 16.118 36 36 36 1.9 0 3.765-.147 5.586-.43A18.027 18.027 0 0 1 59 176c0-6.11 3.072-11.685 8.023-14.984A22.34 22.34 0 0 1 67 160c0-12.15 9.85-22 22-22 .107 0 .214 0 .32.002a35.824 35.824 0 0 0-6.281-14.284zM93.568 139.1c.188.282.307.615.331.973a42.586 42.586 0 0 1 .089 3.938c.008.33.012.66.012.99 0 22.091-17.909 40-40 40s-40-17.909-40-40 17.909-40 40-40c20.087 0 36.715 14.806 39.568 34.099zM89 142c-9.941 0-18 8.059-18 18 0 .63.032 1.255.096 1.874a2 2 0 0 1-1.001 1.944A13.992 13.992 0 0 0 63 176c0 1.113.13 2.207.383 3.267C79.039 174.365 90 159.774 90 143c0-.325-.004-.65-.012-.973A18.323 18.323 0 0 0 89 142zm-46.5 5a6.5 6.5 0 1 1-.25 12.995 8 8 0 1 1-2.82-12.225 6.471 6.471 0 0 1 3.07-.77zm-1.179 4.294a4 4 0 0 1-3.609.089 4 4 0 1 0 1.414 6.113 4 4 0 0 1 3.275-1.498l.099.002a2.5 2.5 0 1 0-1.179-4.706zm4.055-41.255A11.436 11.436 0 0 0 44 115.5c0 6.351 5.149 11.5 11.5 11.5 3.377 0 6.508-1.458 8.682-3.958a4 4 0 0 1 4.646-1.03c1.456.649 3.036.988 4.672.988 2.586 0 5.025-.857 6.998-2.372A35.903 35.903 0 0 0 54 109c-2.939 0-5.828.351-8.624 1.039z"
        fill="#c2c2c2"
        fill-rule="nonzero"
      />
    </g>
  </svg>
