<svg xmlns="http://www.w3.org/2000/svg" xmlns:xlink="http://www.w3.org/1999/xlink" aria-hidden="true" role="img" width="1.4em" height="1.4em"  preserveAspectRatio="xMidYMid meet" viewBox="0 0 24 24"><path d="M3 3h18v18H3V3m4.73 15.04c.4.85 1.19 1.55 2.54 1.55c1.5 0 2.53-.8 2.53-2.55v-5.78h-1.7V17c0 .86-.35 1.08-.9 1.08c-.58 0-.82-.4-1.09-.87l-1.38.83m5.98-.18c.5.98 1.51 1.73 3.09 1.73c1.6 0 2.8-.83 2.8-2.36c0-1.41-.81-2.04-2.25-2.66l-.42-.18c-.73-.31-1.04-.52-1.04-1.02c0-.41.31-.73.81-.73c.48 0 .8.21 1.09.73l1.31-.87c-.55-.96-1.33-1.33-2.4-1.33c-1.51 0-2.48.96-2.48 2.23c0 1.38.81 2.03 2.03 2.55l.42.18c.78.34 1.24.55 1.24 1.13c0 .48-.45.83-1.15.83c-.83 0-1.31-.43-1.67-1.03l-1.38.8z" fill="currentColor"></path></svg>
